<svg width="281" height="106" viewBox="0 0 281 106" fill="none" xmlns="http://www.w3.org/2000/svg">
<g clip-path="url(#clip0_1380_249)">
<path d="M38.3988 105.863H27.4727L52.4466 79.0511H63.685L68.6797 105.863H58.0658L57.4414 101.498H45.2666L51.8222 94.6393H56.1927C56.1927 94.3275 56.1927 93.704 56.1927 93.0804C56.1927 92.4568 55.8805 91.8334 55.8805 91.5216C55.8805 90.898 55.5683 90.2745 55.5683 89.651C55.5683 89.0274 55.2561 88.4039 55.2561 87.7803L38.3987 105.863L38.3988 105.863Z" fill="#192C53"/>
<path d="M87.097 87.7804L80.5413 105.551H71.4883L81.1657 79.0511H95.5258L103.642 96.8217L110.198 79.0511H119.251L109.261 105.863H94.9015L87.0971 87.7805L87.097 87.7804Z" fill="#192C53"/>
<path d="M121.125 105.551H110.199L135.173 78.7393H146.412L151.406 105.551H140.792L140.168 101.186H127.993L134.549 94.3275H138.919C138.919 93.7039 138.607 93.0804 138.607 92.4568C138.607 91.8333 138.607 91.8333 138.295 91.2098C138.295 90.5862 137.983 89.9627 137.983 89.3392C137.983 88.7156 137.67 88.0921 137.67 87.4685L121.125 105.551L121.125 105.551Z" fill="#192C53"/>
<path d="M165.763 105.551H156.398L163.578 85.9099H152.027L154.837 78.7393H186.991L184.181 86.2216H172.943L165.763 105.551V105.551Z" fill="#192C53"/>
<path d="M200.105 78.7393L190.115 105.551H180.75L190.74 78.7393H200.105Z" fill="#192C53"/>
<path d="M201.042 86.5334C201.978 84.0393 203.227 82.1686 205.412 80.6098C207.597 79.3627 210.407 78.7392 212.904 78.7392H236.005L233.196 86.2215H211.031C210.719 86.2215 210.095 86.2215 209.783 86.5333C209.47 86.5333 209.158 86.8451 209.158 87.1568L208.222 89.3392L206.036 95.2627C206.036 95.5745 205.724 95.8863 205.724 96.198C205.724 96.5097 205.412 96.8216 205.412 97.1333C205.412 97.445 205.724 98.0685 206.661 98.0685H228.825L226.016 105.551H202.915C200.729 105.863 198.544 105.239 196.671 103.68C195.735 101.81 195.735 99.6273 196.671 98.0684L201.042 86.5332V86.5334Z" fill="#192C53"/>
<path d="M267.533 91.8334C267.846 93.704 267.533 95.5745 266.597 97.1334C265.66 99.6275 264.099 101.81 262.226 103.68C260.041 105.239 257.544 105.863 255.046 105.551H236.004L233.818 104.927L232.57 103.992L231.945 103.057V101.186L232.882 98.6922H253.797C254.422 98.6922 255.046 98.6922 255.983 98.3804C256.607 98.0686 257.231 97.7568 257.231 97.1334C257.544 96.5098 257.231 95.8863 256.607 95.8863C256.295 95.8863 255.67 95.5745 255.358 95.5745C255.046 95.5745 254.422 95.5745 253.797 95.5745C253.485 95.5745 253.173 95.5745 252.861 95.5745C252.549 95.5745 251.924 95.5745 251.3 95.5745H250.051C248.49 95.5745 247.242 95.5745 246.305 95.5745C245.369 95.5745 244.744 95.5745 244.432 95.5745C244.12 95.5745 243.808 95.5745 243.183 95.5745C242.871 95.5745 242.559 95.5745 242.247 95.5745C241.935 95.5745 241.935 95.5745 241.623 95.5745C241.31 95.5745 241.31 95.5745 240.998 95.5745H240.374C237.876 95.5745 236.315 94.6393 235.691 93.0804C235.379 92.4568 235.379 91.5216 235.379 90.8981C235.691 89.9628 235.691 88.7158 236.315 87.7804C237.252 85.2863 238.501 83.104 240.374 81.2334C242.559 79.3627 245.056 78.7393 247.242 78.7393H266.909L268.47 79.3628L269.718 79.9864L270.343 81.2335L270.655 82.7923L269.718 85.5982H248.803C248.178 85.5982 247.554 85.5982 246.93 85.91C246.305 86.2218 245.993 86.5336 245.681 87.157C245.369 87.7806 245.681 88.0923 245.993 88.4041C246.617 88.7159 247.242 88.7159 247.866 88.7159H249.427C249.739 88.7159 250.676 88.7159 251.612 88.7159H252.861C254.11 88.7159 255.358 88.7159 256.295 88.7159C257.231 88.7159 257.856 88.7159 258.48 88.7159C258.792 88.7159 259.104 88.7159 259.416 88.7159C259.729 88.7159 260.041 88.7159 260.353 88.7159H260.665H260.977C261.29 88.7159 261.602 88.7159 261.914 88.7159C262.226 88.7159 262.538 88.7159 262.85 88.7159C263.787 88.7159 265.036 89.0277 265.972 89.6512C266.597 90.2747 267.221 90.8982 267.533 91.8335L267.533 91.8334Z" fill="#192C53"/>
<path d="M9.67745 105.863H0L10.3017 78.7393H39.6462L36.8366 86.5334H17.1696L15.6087 89.9627L13.1113 97.1334L9.67745 105.863ZM17.4818 89.9628H33.4027L30.5931 97.1335H14.6722L17.4818 89.9628Z" fill="#192C53"/>
<path d="M135.795 0L119.562 43.0236C119.25 43.6472 119.562 44.5824 120.186 44.8942C121.123 45.5178 122.372 45.8295 123.62 45.5178H152.028C153.589 45.5178 154.838 45.206 156.087 44.8942C157.023 44.5824 157.647 43.959 157.96 43.0236L173.88 0H196.669L179.5 45.5177C178.563 48.3236 177.314 50.8177 175.441 53.3118C173.568 55.8059 171.695 57.6765 169.198 59.2354C167.949 60.1706 166.701 60.7942 165.764 61.4177C164.828 62.0412 163.891 62.353 162.954 62.9765C162.018 63.6001 158.896 64.5354 156.711 64.8472C155.462 65.159 153.901 65.4707 152.653 65.4707C150.78 65.4707 149.219 65.7825 147.346 65.7825C145.473 65.7825 142.975 65.7825 139.854 65.7825C136.732 65.7825 133.61 65.7825 129.864 65.7825C126.118 65.7825 122.684 65.7825 119.875 65.7825C117.065 65.7825 114.568 65.7825 112.694 65.7825C109.573 65.7825 106.763 65.4707 103.641 64.8473C102.705 64.8473 101.768 64.5355 100.832 64.2237C100.207 63.9119 99.2709 63.6001 98.6466 63.2884C98.0223 62.9767 97.3979 62.3532 96.7735 61.7296C96.1491 61.106 95.5248 60.1707 94.9004 59.5473C93.6517 57.6766 93.0273 55.8061 93.0273 53.6237C93.3395 51.1296 93.9638 48.3237 94.9004 45.8296L113.007 0.000207031H135.795L135.795 0Z" fill="#192C53"/>
<path d="M229.137 65.1588H206.036L223.83 17.4588H195.734L202.602 0H280.958L274.402 17.4588H247.243L229.137 65.1588Z" fill="#192C53"/>
<path d="M18.2299 68.8854H-4.87109L19.7907 3.72656H89.7178L82.8499 22.1207H36.0237L32.9019 30.5384L26.3462 47.9972L18.2297 68.8854H18.2299ZM36.336 30.5384H74.1092L67.5535 47.9972H29.7803L36.336 30.5384Z" fill="#192C53"/>
</g>
<defs>
<clipPath id="clip0_1380_249">
<rect width="281" height="106" fill="white"/>
</clipPath>
</defs>
</svg>
